<svg width="83" height="115" viewBox="0 0 83 115" fill="none" xmlns="http://www.w3.org/2000/svg">
<g opacity="0.3">
<mask id="mask0" mask-type="alpha" maskUnits="userSpaceOnUse" x="11" y="0" width="12" height="11">
<path d="M16.7905 10.425C19.6781 10.425 22.0189 8.09121 22.0189 5.21245C22.0189 2.33368 19.6781 0 16.7905 0C13.903 0 11.5621 2.33368 11.5621 5.21245C11.5621 8.09121 13.903 10.425 16.7905 10.425Z" fill="url(#paint0_linear)"/>
</mask>
<g mask="url(#mask0)">
<path d="M16.7905 10.425C19.6781 10.425 22.0189 8.09121 22.0189 5.21245C22.0189 2.33368 19.6781 0 16.7905 0C13.903 0 11.5621 2.33368 11.5621 5.21245C11.5621 8.09121 13.903 10.425 16.7905 10.425Z" fill="url(#paint1_linear)"/>
</g>
<mask id="mask1" mask-type="alpha" maskUnits="userSpaceOnUse" x="41" y="0" width="12" height="11">
<path d="M47.0716 10.425C49.9592 10.425 52.3 8.09121 52.3 5.21245C52.3 2.33368 49.9592 0 47.0716 0C44.184 0 41.8432 2.33368 41.8432 5.21245C41.8432 8.09121 44.184 10.425 47.0716 10.425Z" fill="url(#paint2_linear)"/>
</mask>
<g mask="url(#mask1)">
<path d="M47.0716 10.425C49.9592 10.425 52.3 8.09121 52.3 5.21245C52.3 2.33368 49.9592 0 47.0716 0C44.184 0 41.8432 2.33368 41.8432 5.21245C41.8432 8.09121 44.184 10.425 47.0716 10.425Z" fill="url(#paint3_linear)"/>
</g>
<mask id="mask2" mask-type="alpha" maskUnits="userSpaceOnUse" x="72" y="0" width="11" height="11">
<path d="M77.3526 10.425C80.2402 10.425 82.581 8.09121 82.581 5.21245C82.581 2.33368 80.2402 0 77.3526 0C74.4651 0 72.1243 2.33368 72.1243 5.21245C72.1243 8.09121 74.4651 10.425 77.3526 10.425Z" fill="url(#paint4_linear)"/>
</mask>
<g mask="url(#mask2)">
<path d="M77.3526 10.425C80.2402 10.425 82.581 8.09121 82.581 5.21245C82.581 2.33368 80.2402 0 77.3526 0C74.4651 0 72.1243 2.33368 72.1243 5.21245C72.1243 8.09121 74.4651 10.425 77.3526 10.425Z" fill="url(#paint5_linear)"/>
</g>
<mask id="mask3" mask-type="alpha" maskUnits="userSpaceOnUse" x="11" y="26" width="12" height="11">
<path d="M16.7905 36.5958C19.6781 36.5958 22.0189 34.2621 22.0189 31.3834C22.0189 28.5046 19.6781 26.171 16.7905 26.171C13.903 26.171 11.5621 28.5046 11.5621 31.3834C11.5621 34.2621 13.903 36.5958 16.7905 36.5958Z" fill="url(#paint6_linear)"/>
</mask>
<g mask="url(#mask3)">
<path d="M16.7905 36.5958C19.6781 36.5958 22.0189 34.2621 22.0189 31.3834C22.0189 28.5046 19.6781 26.171 16.7905 26.171C13.903 26.171 11.5621 28.5046 11.5621 31.3834C11.5621 34.2621 13.903 36.5958 16.7905 36.5958Z" fill="url(#paint7_linear)"/>
</g>
<mask id="mask4" mask-type="alpha" maskUnits="userSpaceOnUse" x="41" y="26" width="12" height="11">
<path d="M47.0716 36.5958C49.9592 36.5958 52.3 34.2621 52.3 31.3834C52.3 28.5046 49.9592 26.171 47.0716 26.171C44.184 26.171 41.8432 28.5046 41.8432 31.3834C41.8432 34.2621 44.184 36.5958 47.0716 36.5958Z" fill="url(#paint8_linear)"/>
</mask>
<g mask="url(#mask4)">
<path d="M47.0716 36.5958C49.9592 36.5958 52.3 34.2621 52.3 31.3834C52.3 28.5046 49.9592 26.171 47.0716 26.171C44.184 26.171 41.8432 28.5046 41.8432 31.3834C41.8432 34.2621 44.184 36.5958 47.0716 36.5958Z" fill="url(#paint9_linear)"/>
</g>
<mask id="mask5" mask-type="alpha" maskUnits="userSpaceOnUse" x="72" y="26" width="11" height="11">
<path d="M77.3526 36.5958C80.2402 36.5958 82.581 34.2621 82.581 31.3834C82.581 28.5046 80.2402 26.171 77.3526 26.171C74.4651 26.171 72.1243 28.5046 72.1243 31.3834C72.1243 34.2621 74.4651 36.5958 77.3526 36.5958Z" fill="url(#paint10_linear)"/>
</mask>
<g mask="url(#mask5)">
<path d="M77.3526 36.5958C80.2402 36.5958 82.581 34.2621 82.581 31.3834C82.581 28.5046 80.2402 26.171 77.3526 26.171C74.4651 26.171 72.1243 28.5046 72.1243 31.3834C72.1243 34.2621 74.4651 36.5958 77.3526 36.5958Z" fill="url(#paint11_linear)"/>
</g>
<mask id="mask6" mask-type="alpha" maskUnits="userSpaceOnUse" x="11" y="52" width="12" height="11">
<path d="M16.7905 62.7125C19.6781 62.7125 22.0189 60.3788 22.0189 57.5C22.0189 54.6212 19.6781 52.2875 16.7905 52.2875C13.903 52.2875 11.5621 54.6212 11.5621 57.5C11.5621 60.3788 13.903 62.7125 16.7905 62.7125Z" fill="url(#paint12_linear)"/>
</mask>
<g mask="url(#mask6)">
<path d="M16.7905 62.7125C19.6781 62.7125 22.0189 60.3788 22.0189 57.5C22.0189 54.6212 19.6781 52.2875 16.7905 52.2875C13.903 52.2875 11.5621 54.6212 11.5621 57.5C11.5621 60.3788 13.903 62.7125 16.7905 62.7125Z" fill="url(#paint13_linear)"/>
</g>
<mask id="mask7" mask-type="alpha" maskUnits="userSpaceOnUse" x="41" y="52" width="12" height="11">
<path d="M47.0716 62.7125C49.9592 62.7125 52.3 60.3788 52.3 57.5C52.3 54.6212 49.9592 52.2875 47.0716 52.2875C44.184 52.2875 41.8432 54.6212 41.8432 57.5C41.8432 60.3788 44.184 62.7125 47.0716 62.7125Z" fill="url(#paint14_linear)"/>
</mask>
<g mask="url(#mask7)">
<path d="M47.0716 62.7125C49.9592 62.7125 52.3 60.3788 52.3 57.5C52.3 54.6212 49.9592 52.2875 47.0716 52.2875C44.184 52.2875 41.8432 54.6212 41.8432 57.5C41.8432 60.3788 44.184 62.7125 47.0716 62.7125Z" fill="url(#paint15_linear)"/>
</g>
<mask id="mask8" mask-type="alpha" maskUnits="userSpaceOnUse" x="72" y="52" width="11" height="11">
<path d="M77.3526 62.7125C80.2402 62.7125 82.581 60.3788 82.581 57.5C82.581 54.6212 80.2402 52.2875 77.3526 52.2875C74.4651 52.2875 72.1243 54.6212 72.1243 57.5C72.1243 60.3788 74.4651 62.7125 77.3526 62.7125Z" fill="url(#paint16_linear)"/>
</mask>
<g mask="url(#mask8)">
<path d="M77.3526 62.7125C80.2402 62.7125 82.581 60.3788 82.581 57.5C82.581 54.6212 80.2402 52.2875 77.3526 52.2875C74.4651 52.2875 72.1243 54.6212 72.1243 57.5C72.1243 60.3788 74.4651 62.7125 77.3526 62.7125Z" fill="url(#paint17_linear)"/>
</g>
<mask id="mask9" mask-type="alpha" maskUnits="userSpaceOnUse" x="11" y="78" width="12" height="11">
<path d="M16.7905 88.8834C19.6781 88.8834 22.0189 86.5496 22.0189 83.6709C22.0189 80.7921 19.6781 78.4584 16.7905 78.4584C13.903 78.4584 11.5621 80.7921 11.5621 83.6709C11.5621 86.5496 13.903 88.8834 16.7905 88.8834Z" fill="url(#paint18_linear)"/>
</mask>
<g mask="url(#mask9)">
<path d="M16.7905 88.8834C19.6781 88.8834 22.0189 86.5496 22.0189 83.6709C22.0189 80.7921 19.6781 78.4584 16.7905 78.4584C13.903 78.4584 11.5621 80.7921 11.5621 83.6709C11.5621 86.5496 13.903 88.8834 16.7905 88.8834Z" fill="url(#paint19_linear)"/>
</g>
<mask id="mask10" mask-type="alpha" maskUnits="userSpaceOnUse" x="41" y="78" width="12" height="11">
<path d="M47.0716 88.8834C49.9592 88.8834 52.3 86.5496 52.3 83.6709C52.3 80.7921 49.9592 78.4584 47.0716 78.4584C44.184 78.4584 41.8432 80.7921 41.8432 83.6709C41.8432 86.5496 44.184 88.8834 47.0716 88.8834Z" fill="url(#paint20_linear)"/>
</mask>
<g mask="url(#mask10)">
<path d="M47.0716 88.8834C49.9592 88.8834 52.3 86.5496 52.3 83.6709C52.3 80.7921 49.9592 78.4584 47.0716 78.4584C44.184 78.4584 41.8432 80.7921 41.8432 83.6709C41.8432 86.5496 44.184 88.8834 47.0716 88.8834Z" fill="url(#paint21_linear)"/>
</g>
<mask id="mask11" mask-type="alpha" maskUnits="userSpaceOnUse" x="72" y="78" width="11" height="11">
<path d="M77.3526 88.8834C80.2402 88.8834 82.581 86.5496 82.581 83.6709C82.581 80.7921 80.2402 78.4584 77.3526 78.4584C74.4651 78.4584 72.1243 80.7921 72.1243 83.6709C72.1243 86.5496 74.4651 88.8834 77.3526 88.8834Z" fill="url(#paint22_linear)"/>
</mask>
<g mask="url(#mask11)">
<path d="M77.3526 88.8834C80.2402 88.8834 82.581 86.5496 82.581 83.6709C82.581 80.7921 80.2402 78.4584 77.3526 78.4584C74.4651 78.4584 72.1243 80.7921 72.1243 83.6709C72.1243 86.5496 74.4651 88.8834 77.3526 88.8834Z" fill="url(#paint23_linear)"/>
</g>
<mask id="mask12" mask-type="alpha" maskUnits="userSpaceOnUse" x="11" y="104" width="12" height="11">
<path d="M16.7905 115C19.6781 115 22.0189 112.666 22.0189 109.788C22.0189 106.909 19.6781 104.575 16.7905 104.575C13.903 104.575 11.5621 106.909 11.5621 109.788C11.5621 112.666 13.903 115 16.7905 115Z" fill="url(#paint24_linear)"/>
</mask>
<g mask="url(#mask12)">
<path d="M16.7905 115C19.6781 115 22.0189 112.666 22.0189 109.788C22.0189 106.909 19.6781 104.575 16.7905 104.575C13.903 104.575 11.5621 106.909 11.5621 109.788C11.5621 112.666 13.903 115 16.7905 115Z" fill="url(#paint25_linear)"/>
</g>
<mask id="mask13" mask-type="alpha" maskUnits="userSpaceOnUse" x="41" y="104" width="12" height="11">
<path d="M47.0716 115C49.9592 115 52.3 112.666 52.3 109.788C52.3 106.909 49.9592 104.575 47.0716 104.575C44.184 104.575 41.8432 106.909 41.8432 109.788C41.8432 112.666 44.184 115 47.0716 115Z" fill="url(#paint26_linear)"/>
</mask>
<g mask="url(#mask13)">
<path d="M47.0716 115C49.9592 115 52.3 112.666 52.3 109.788C52.3 106.909 49.9592 104.575 47.0716 104.575C44.184 104.575 41.8432 106.909 41.8432 109.788C41.8432 112.666 44.184 115 47.0716 115Z" fill="url(#paint27_linear)"/>
</g>
<mask id="mask14" mask-type="alpha" maskUnits="userSpaceOnUse" x="72" y="104" width="11" height="11">
<path d="M77.3526 115C80.2402 115 82.581 112.666 82.581 109.788C82.581 106.909 80.2402 104.575 77.3526 104.575C74.4651 104.575 72.1243 106.909 72.1243 109.788C72.1243 112.666 74.4651 115 77.3526 115Z" fill="url(#paint28_linear)"/>
</mask>
<g mask="url(#mask14)">
<path d="M77.3526 115C80.2402 115 82.581 112.666 82.581 109.788C82.581 106.909 80.2402 104.575 77.3526 104.575C74.4651 104.575 72.1243 106.909 72.1243 109.788C72.1243 112.666 74.4651 115 77.3526 115Z" fill="url(#paint29_linear)"/>
</g>
</g>
<defs>
<linearGradient id="paint0_linear" x1="58.4049" y1="110.551" x2="-12.9967" y2="-71.2526" gradientUnits="userSpaceOnUse">
<stop/>
<stop offset="1" stop-color="white"/>
</linearGradient>
<linearGradient id="paint1_linear" x1="58.4049" y1="110.551" x2="-12.9967" y2="-71.2526" gradientUnits="userSpaceOnUse">
<stop stop-color="#97C3F9"/>
<stop offset="1" stop-color="#93C1F9"/>
</linearGradient>
<linearGradient id="paint2_linear" x1="84.6091" y1="100.259" x2="13.2075" y2="-81.5444" gradientUnits="userSpaceOnUse">
<stop/>
<stop offset="1" stop-color="white"/>
</linearGradient>
<linearGradient id="paint3_linear" x1="84.6091" y1="100.259" x2="13.2075" y2="-81.5444" gradientUnits="userSpaceOnUse">
<stop stop-color="#97C3F9"/>
<stop offset="1" stop-color="#93C1F9"/>
</linearGradient>
<linearGradient id="paint4_linear" x1="110.813" y1="89.9679" x2="39.4119" y2="-91.8359" gradientUnits="userSpaceOnUse">
<stop/>
<stop offset="1" stop-color="white"/>
</linearGradient>
<linearGradient id="paint5_linear" x1="110.813" y1="89.9679" x2="39.4119" y2="-91.8359" gradientUnits="userSpaceOnUse">
<stop stop-color="#97C3F9"/>
<stop offset="1" stop-color="#93C1F9"/>
</linearGradient>
<linearGradient id="paint6_linear" x1="49.4624" y1="114.062" x2="-21.9379" y2="-67.7403" gradientUnits="userSpaceOnUse">
<stop/>
<stop offset="1" stop-color="white"/>
</linearGradient>
<linearGradient id="paint7_linear" x1="49.4624" y1="114.062" x2="-21.9379" y2="-67.7403" gradientUnits="userSpaceOnUse">
<stop stop-color="#97C3F9"/>
<stop offset="1" stop-color="#93C1F9"/>
</linearGradient>
<linearGradient id="paint8_linear" x1="75.6667" y1="103.771" x2="4.26634" y2="-78.0318" gradientUnits="userSpaceOnUse">
<stop/>
<stop offset="1" stop-color="white"/>
</linearGradient>
<linearGradient id="paint9_linear" x1="75.6667" y1="103.771" x2="4.26634" y2="-78.0318" gradientUnits="userSpaceOnUse">
<stop stop-color="#97C3F9"/>
<stop offset="1" stop-color="#93C1F9"/>
</linearGradient>
<linearGradient id="paint10_linear" x1="101.871" y1="93.4794" x2="30.4707" y2="-88.3231" gradientUnits="userSpaceOnUse">
<stop/>
<stop offset="1" stop-color="white"/>
</linearGradient>
<linearGradient id="paint11_linear" x1="101.871" y1="93.4794" x2="30.4707" y2="-88.3231" gradientUnits="userSpaceOnUse">
<stop stop-color="#97C3F9"/>
<stop offset="1" stop-color="#93C1F9"/>
</linearGradient>
<linearGradient id="paint12_linear" x1="40.5201" y1="117.575" x2="-30.8815" y2="-64.2288" gradientUnits="userSpaceOnUse">
<stop/>
<stop offset="1" stop-color="white"/>
</linearGradient>
<linearGradient id="paint13_linear" x1="40.5201" y1="117.575" x2="-30.8815" y2="-64.2288" gradientUnits="userSpaceOnUse">
<stop stop-color="#97C3F9"/>
<stop offset="1" stop-color="#93C1F9"/>
</linearGradient>
<linearGradient id="paint14_linear" x1="66.7243" y1="107.283" x2="-4.67728" y2="-74.5205" gradientUnits="userSpaceOnUse">
<stop/>
<stop offset="1" stop-color="white"/>
</linearGradient>
<linearGradient id="paint15_linear" x1="66.7243" y1="107.283" x2="-4.67728" y2="-74.5205" gradientUnits="userSpaceOnUse">
<stop stop-color="#97C3F9"/>
<stop offset="1" stop-color="#93C1F9"/>
</linearGradient>
<linearGradient id="paint16_linear" x1="92.9287" y1="96.9919" x2="21.5271" y2="-84.812" gradientUnits="userSpaceOnUse">
<stop/>
<stop offset="1" stop-color="white"/>
</linearGradient>
<linearGradient id="paint17_linear" x1="92.9287" y1="96.9919" x2="21.5271" y2="-84.812" gradientUnits="userSpaceOnUse">
<stop stop-color="#97C3F9"/>
<stop offset="1" stop-color="#93C1F9"/>
</linearGradient>
<linearGradient id="paint18_linear" x1="31.5777" y1="121.087" x2="-39.8239" y2="-60.7168" gradientUnits="userSpaceOnUse">
<stop/>
<stop offset="1" stop-color="white"/>
</linearGradient>
<linearGradient id="paint19_linear" x1="31.5777" y1="121.087" x2="-39.8239" y2="-60.7168" gradientUnits="userSpaceOnUse">
<stop stop-color="#97C3F9"/>
<stop offset="1" stop-color="#93C1F9"/>
</linearGradient>
<linearGradient id="paint20_linear" x1="57.782" y1="110.795" x2="-13.6196" y2="-71.0084" gradientUnits="userSpaceOnUse">
<stop/>
<stop offset="1" stop-color="white"/>
</linearGradient>
<linearGradient id="paint21_linear" x1="57.782" y1="110.795" x2="-13.6196" y2="-71.0084" gradientUnits="userSpaceOnUse">
<stop stop-color="#97C3F9"/>
<stop offset="1" stop-color="#93C1F9"/>
</linearGradient>
<linearGradient id="paint22_linear" x1="83.9863" y1="100.504" x2="12.5847" y2="-81.3" gradientUnits="userSpaceOnUse">
<stop/>
<stop offset="1" stop-color="white"/>
</linearGradient>
<linearGradient id="paint23_linear" x1="83.9863" y1="100.504" x2="12.5847" y2="-81.3" gradientUnits="userSpaceOnUse">
<stop stop-color="#97C3F9"/>
<stop offset="1" stop-color="#93C1F9"/>
</linearGradient>
<linearGradient id="paint24_linear" x1="22.6353" y1="124.599" x2="-48.7663" y2="-57.2047" gradientUnits="userSpaceOnUse">
<stop/>
<stop offset="1" stop-color="white"/>
</linearGradient>
<linearGradient id="paint25_linear" x1="22.6353" y1="124.599" x2="-48.7663" y2="-57.2047" gradientUnits="userSpaceOnUse">
<stop stop-color="#97C3F9"/>
<stop offset="1" stop-color="#93C1F9"/>
</linearGradient>
<linearGradient id="paint26_linear" x1="48.8397" y1="114.307" x2="-22.562" y2="-67.4964" gradientUnits="userSpaceOnUse">
<stop/>
<stop offset="1" stop-color="white"/>
</linearGradient>
<linearGradient id="paint27_linear" x1="48.8397" y1="114.307" x2="-22.562" y2="-67.4964" gradientUnits="userSpaceOnUse">
<stop stop-color="#97C3F9"/>
<stop offset="1" stop-color="#93C1F9"/>
</linearGradient>
<linearGradient id="paint28_linear" x1="75.044" y1="104.016" x2="3.64237" y2="-77.7879" gradientUnits="userSpaceOnUse">
<stop/>
<stop offset="1" stop-color="white"/>
</linearGradient>
<linearGradient id="paint29_linear" x1="75.044" y1="104.016" x2="3.64237" y2="-77.7879" gradientUnits="userSpaceOnUse">
<stop stop-color="#97C3F9"/>
<stop offset="1" stop-color="#93C1F9"/>
</linearGradient>
</defs>
</svg>
